<svg xmlns="http://www.w3.org/2000/svg" width="19.909" height="19.889" viewBox="13.562 11.603 19.909 19.889"><path fill="#FFF" d="M31.82 11.886c-.38-.378-1.036-.378-1.414 0l-6.89 6.89-6.89-6.89c-.378-.378-1.037-.378-1.416 0l-1.355 1.354c-.39.392-.39 1.026 0 1.416l6.89 6.89-6.89 6.892c-.19.19-.293.44-.293.707 0 .268.104.52.292.707l1.355 1.355c.376.38 1.035.377 1.413 0l6.89-6.89h.002l6.89 6.89c.38.38 1.036.38 1.415 0l1.356-1.355c.19-.19.294-.44.294-.707 0-.267-.105-.518-.295-.707l-6.89-6.892 6.89-6.89c.188-.19.292-.44.292-.707 0-.27-.104-.52-.293-.708l-1.354-1.356z"/></svg>