<svg xmlns="http://www.w3.org/2000/svg" width="24.005" height="21.846" viewBox="15.499 18.654 24.005 21.846"><g fill="#FF614F"><path d="M23.297 30.598c-.655-.764-.66-1.177-.02-1.922.954-1.11 4.522-5.238 4.522-5.238.517-.603.763-1.365.692-2.147-.072-.787-.457-1.498-1.083-2-1.222-.98-3.183-.803-4.2.376l-7 8.11c-.957 1.107-.947 2.705.02 3.8l7 7.91c.575.645 1.4 1.015 2.274 1.015.705 0 1.392-.244 1.93-.687.624-.51 1-1.226 1.063-2.015.062-.784-.196-1.544-.722-2.14-.04-.043-3.516-3.937-4.478-5.06z"/><path d="M38.773 35.656s-3.568-4.057-4.523-5.11c-.61-.677-.61-1.123 0-1.838.94-1.1 4.548-5.27 4.548-5.27.52-.604.765-1.366.694-2.148-.073-.788-.458-1.5-1.084-2-1.22-.98-3.182-.804-4.2.375l-7 8.11c-.955 1.107-.945 2.705.024 3.8l7 7.91c.57.645 1.398 1.015 2.27 1.014.705 0 1.393-.246 1.934-.69.62-.51.996-1.225 1.06-2.013.06-.785-.197-1.545-.723-2.14z"/></g></svg>