<svg xmlns="http://www.w3.org/2000/svg" width="23.832" height="23.832" viewBox="16.168 7.257 23.832 23.832"><g fill="#FFF"><path d="M39 17.278h-1.15c-.264-1.334-.793-2.572-1.533-3.656l.826-.827c.396-.392.385-1.03-.016-1.43l-1.234-1.235c-.397-.4-1.04-.406-1.43-.016l-.838.84c-1.084-.727-2.318-1.24-3.646-1.494V8.257c0-.553-.458-1-1.022-1h-1.746c-.565 0-1.022.447-1.022 1v1.21c-1.32.258-2.55.774-3.63 1.5l-.853-.853c-.393-.39-1.03-.385-1.434.016l-1.232 1.234c-.397.4-.405 1.04-.017 1.43l.852.852c-.73 1.078-1.254 2.31-1.518 3.633H17.17c-.553 0-1.002.456-1.002 1.022v1.745c0 .565.45 1.022 1 1.022h1.182c.252 1.334.768 2.575 1.494 3.664l-.816.817c-.39.39-.383 1.033.018 1.434l1.232 1.232c.398.4 1.04.408 1.432.02l.805-.808c1.09.74 2.336 1.27 3.678 1.534v1.127c0 .553.458 1 1.023 1h1.746c.563 0 1.02-.447 1.02-1v-1.12c1.35-.258 2.602-.782 3.694-1.524l.79.787c.392.39 1.028.385 1.43-.017l1.233-1.234c.397-.4.405-1.04.017-1.43l-.79-.793c.733-1.095 1.255-2.347 1.51-3.69H39c.553 0 1-.458 1-1.023V18.3c0-.564-.447-1.022-1-1.022zm-10.928 9.968c-4.436 0-8.03-3.596-8.03-8.03s3.595-8.032 8.03-8.032c4.435 0 8.03 3.596 8.03 8.03s-3.594 8.032-8.03 8.032z"/><ellipse cx="27.979" cy="19.262" rx="2.972" ry="2.953"/></g></svg>